<?xml version="1.0" encoding="utf-8"?>
<!-- Generator: Adobe Illustrator 28.1.0, SVG Export Plug-In . SVG Version: 6.00 Build 0)  -->
<svg version="1.1" id="Layer_1" xmlns="http://www.w3.org/2000/svg" xmlns:xlink="http://www.w3.org/1999/xlink" x="0px" y="0px"
	 viewBox="0 0 6748.3 4237.4" style="enable-background:new 0 0 6748.3 4237.4;" xml:space="preserve">
<style type="text/css">
	.st0{opacity:0.5;fill:#FF0000;}
	.st1{fill:#F1D611;}
	.st2{fill:#010101;}
	.st3{opacity:0.5;fill:#010101;enable-background:new    ;}
	.st4{fill:#FF0000;}
	.st5{fill:#606060;}
	.st6{fill:#FF0000;stroke:#1EB896;stroke-miterlimit:10;}
</style>
<path class="st0" d="M3570.6-348h-254.7v0.6h262.6C3575.9-347.8,3573.2-348,3570.6-348z"/>
<g id="eblBX8_00000022549520822023304710000012551343130420948878_">
</g>
<rect x="1695.2" y="-1383.7" class="st1" width="437" height="284.7"/>
<path class="st2" d="M1652.9,806.3v32.5c0,5.5-4.5,10-10,10h-240c-5.5,0-10-4.5-10-10v-12.9c0-18-14.6-32.5-32.5-32.5h-0.2
	c-2.3,31-28.2,55.4-59.8,55.4h-660c-33.1,0-60-26.9-60-60v-220c0-5.5,4.5-10,10-10h306c5,0,9,4,9,9v212.6c0,24.8,20.2,45,45,45h40
	c24.8,0,45-20.2,45-45V567.8c0-5,4-9,9-9h306c5.5,0,10,4.5,10,10v207.5h262.5C1639.5,776.3,1652.9,789.7,1652.9,806.3z"/>
<path class="st2" d="M3062.5,558.8c0,0.1,0,0.2,0,0.4L3062.5,558.8L3062.5,558.8z"/>
<path class="st2" d="M3062.5,559.1L3062.5,559.1l0-0.4C3062.5,558.9,3062.5,559,3062.5,559.1z"/>
<path class="st3" d="M3062.5,559.1L3062.5,559.1l0-0.4C3062.5,558.9,3062.5,559,3062.5,559.1z"/>
<path class="st3" d="M3062.5,559.1L3062.5,559.1l0-0.4C3062.5,558.9,3062.5,559,3062.5,559.1z"/>
<path class="st3" d="M3062.5,558.8c0,0.1,0,0.2,0,0.4L3062.5,558.8L3062.5,558.8z"/>
<path class="st3" d="M3062.5,558.8c0,0.1,0,0.2,0,0.4L3062.5,558.8L3062.5,558.8z"/>
<path class="st2" d="M5456.5,693.8v-15.5c0-6.7-2-12.8-5.4-18c-1.2-1.8-2.6-3.5-4.1-5c-5.9-5.9-14-9.5-23-9.5h-83
	c-4,0-7.6,1.6-10.2,4.2c-2.6,2.6-4.2,6.2-4.2,10.2v159.5c0,8,6.5,14.5,14.5,14.5h101c4,0,7.6-1.6,10.2-4.2c2.6-2.6,4.2-6.2,4.2-10.2
	v-48c0-5.5,4.5-10,10-10H5739c5.5,0,10,4.5,10,10v17c0,33.1-26.9,60-60,60h-362.5v0h-265c-33.1,0-60-26.9-60-60v-220
	c0-5.5,4.5-10,10-10h306c5,0,9,4,9,9v63.5H5689c33.1,0,60,26.9,60,60v2.5c0,5.5-4.5,10-10,10h-272.5
	C5460.9,703.8,5456.5,699.3,5456.5,693.8z"/>
<path class="st2" d="M1360.4,1234.6v15h-314.7c-5.5,0-10-5.4-10-12v-13.5h-0.1c0-17.9-14.5-32.5-32.5-32.5l-97.7-0.1v33.5
	c0,5.5-4.5,10-10,10H590.4c-5.5,0-10-4.5-10-10v-81.5c0-5.5,4.5-10,10-10h305.1c5.5,0,10,4.5,10,10v33.5h97.7c9,0,17.1-3.6,23-9.5
	c1.5-1.5,2.9-3.2,4.1-5c3.4-5.2,5.4-11.3,5.4-18v-156c0-8-6.5-14.5-14.5-14.5H920.1c-4,0-7.6,1.6-10.3,4.2
	c-2.6,2.6-4.3,6.2-4.3,10.2v101.5H590.4c-5.5,0-10-4.5-10-10v-60.5c0-33.1,26.9-60,60-60h644.9c33.1,0,60,26.9,60,60
	c0,93,0,143-275,143c-1.1,0-2,0.9-2,2v8.6c0,1.2,1,2.1,2.1,2l230-12.6C1333.6,1162.6,1360.4,1194.8,1360.4,1234.6z"/>
<path class="st2" d="M3677,732.8h-261.4v-114c0-33.1-26.9-60-60-60H2696c-33.1,0-60,26.9-60,60v68.7c0,33.1,26.9,60,60,60h264.5
	v-0.2h130V839c0,5.5,4.5,10,10,10h305c5.5,0,10-4.5,10-10v-77.2c0-4,1.6-7.6,4.2-10.2c2.6-2.6,6.2-4.2,10.2-4.2h36
	c8,0,14.5,6.5,14.5,14.5v31c0,5.5,4.5,10,10,10H3697c5.5,0,10-4.5,10-10v-30C3707,746.2,3693.5,732.8,3677,732.8z M3090.5,700.3
	c0,9-3.6,17.1-9.5,23c-5.9,5.9-14,9.5-23,9.5h-65c-9,0-17.1-3.6-23-9.5s-9.5-14-9.5-23v-94.5c0-9,3.6-17.1,9.5-23
	c5.9-5.9,14-9.5,23-9.5h65c9,0,17.1,3.6,23,9.5s9.5,14,9.5,23V700.3z"/>
<path class="st2" d="M2163,694.1V587.8c0-8-6.5-14.5-14.5-14.5h-101c-4,0-7.6,1.6-10.2,4.2c-2.6,2.6-4.2,6.2-4.2,10.2v159.5h395
	c33.1,0,60,26.9,60,60v2.7c0,5.5-4.5,10-10,10h-305c-5.5,0-10-4.5-10-10v-33.7c0-8-6.5-14.5-14.5-14.5h-101c-4,0-7.6,1.6-10.2,4.2
	c-2.6,2.6-4.2,6.2-4.2,10.2v63.1c0,5.5-4.5,10-10,10h-305c-5.5,0-10-4.5-10-10V618.8c0-33.1,26.9-60,60-60h660c33.1,0,60,26.9,60,60
	v75.3c0,5.5-4.5,10-10,10h-305C2167.5,704.1,2163,699.6,2163,694.1z"/>
<path class="st2" d="M633.8-683.1v-106.3c0-8-6.5-14.5-14.5-14.5h-101c-4,0-7.6,1.6-10.2,4.2c-2.6,2.6-4.2,6.2-4.2,10.2v159.5h395
	c33.1,0,60,26.9,60,60v2.7c0,5.5-4.5,10-10,10h-305c-5.5,0-10-4.5-10-10v-33.7c0-8-6.5-14.5-14.5-14.5h-101c-4,0-7.6,1.6-10.2,4.2
	c-2.6,2.6-4.2,6.2-4.2,10.2v63.1c0,5.5-4.5,10-10,10h-305c-5.5,0-10-4.5-10-10v-220.6c0-33.1,26.9-60,60-60h660
	c33.1,0,60,26.9,60,60v75.3c0,5.5-4.5,10-10,10h-305C638.3-673.1,633.8-677.6,633.8-683.1z"/>
<path class="st2" d="M4798.8,748.8v30c0,5.5-4.5,10-10,10h-206.4c-5.5,0-10-4.5-10-10v-31c0-8-6.5-14.5-14.5-14.5h-36
	c-4,0-7.6,1.6-10.2,4.2c-2.6,2.6-4.2,6.2-4.2,10.2v91.5c0,5.5-4.5,10-10,10h-272.5c-5.5,0-10-4.5-10-10v-251c0-8-6.5-14.5-14.5-14.5
	h-133.5c-4,0-7.6,1.6-10.2,4.2c-2.6,2.6-4.2,6.2-4.2,10.2v149.5c0,5.5-4.5,10-10,10h-305c-5.5,0-10-4.5-10-10v-119
	c0-33.1,26.9-60,60-60h265v0.5h395c33.1,0,60,26.9,60,60v99.5h261.4C4785.4,718.8,4798.8,732.2,4798.8,748.8z"/>
<path class="st2" d="M2488,1092.1v2.5c0,5.5-4.5,10-10,10h-305c-5.5,0-10-4.5-10-10v-8c0-9.7-3.4-18.6-9.2-25.5
	c-7.3-8.9-18.4-14.5-30.8-14.5h-75.5c-4,0-7.6,1.6-10.2,4.2c-2.6,2.6-4.2,6.2-4.2,10.2v159.5c0,4,1.6,7.6,4.2,10.2
	c2.6,2.6,6.2,4.2,10.2,4.2H2413c5.5,0,10,4.5,10,10v23.5c0,5.5-4.5,10-10,10h-207.5c-5.5,0-10-4.5-10-10v-4.5c0-4-1.6-7.6-4.2-10.2
	c-2.6-2.6-6.2-4.2-10.2-4.2h-463c-5.5,0-10-4.5-10-10v-270c0-5.5,4.5-10,10-10h305c5.5,0,10,4.5,10,10v62.5h395
	C2461.1,1032.1,2488,1058.9,2488,1092.1z"/>
<path class="st2" d="M3415.5,1245.1v23.5c0,5.5-4.5,10-10,10h-305c-5.5,0-10-4.5-10-10v-5.5c-0.2-3.6-1.8-6.8-4.2-9.2
	c-2.6-2.6-6.2-4.2-10.3-4.2h-440.5v-240c0-27.6,22.4-50,50-50h669.3c33.1,0,60,26.9,60,60v133c0,5.5-4.5,10-10,10h-304.3
	c-5.5,0-10-4.5-10-10v-164c0-8-6.5-14.5-14.5-14.5h-101c-4,0-7.6,1.6-10.2,4.2c-2.6,2.6-4.2,6.2-4.2,10.2v232c0,4,1.6,7.6,4.2,10.2
	c2.6,2.6,6.2,4.2,10.2,4.2h430.5C3411,1235.1,3415.5,1239.5,3415.5,1245.1z"/>
<path class="st2" d="M4837.4,1075.6h-200v-56c0-33.1-26.9-60-60-60h-790c-33.1,0-60,26.9-60,60v220c0,5.5,4.5,10,10,10h305
	c5.5,0,10-4.5,10-10v-200.5c0-18,7.3-34.2,19-46c11.8-11.8,28-19,46-19h130c18,0,34.2,7.3,46,19c11.8,11.8,19,28,19,46v36.5h-135
	c-33.1,0-60,26.9-60,60v54c0,33.1,26.9,60,60,60h70v0h65v0h265c33.1,0,60-26.9,60-60v-99.5h21.5c24,0,43.5,19.5,43.5,43.5v4.5
	c0,5.5,4.5,10,10,10h175c5.5,0,10-4.5,10-10v-2.5C4897.4,1102.4,4870.5,1075.6,4837.4,1075.6z M4312.4,1220.6
	c0,8-6.5,14.5-14.5,14.5H4262c-9.1,0-17.3-5.7-20.3-14.3c0-0.1-9.8-26.8-9.8-58.2c0-31.6,9.8-58.1,9.8-58.2
	c3-8.6,11.2-14.3,20.3-14.3h35.9c8,0,14.5,6.5,14.5,14.5L4312.4,1220.6L4312.4,1220.6z"/>
<path class="st2" d="M6037.8,1032.1h-232.5v-62.5c0-5.5-4.5-10-10-10h-305c-5.5,0-10,4.5-10,10v48h-427.5c-33.1,0-60,26.9-60,60v112
	c0,33.1,26.9,60,60,60h265v0h162.5v0h265c33.1,0,60-26.9,60-60v-143h21.5c24,0,43.5,19.5,43.5,43.5v8.3c0,5.5,4.5,10,10,10h207.5
	c5.5,0,10-4.5,10-10v-6.3C6097.8,1058.9,6070.9,1032.1,6037.8,1032.1z M5480.3,1162.6c0,20-8.1,38.2-21.2,51.3s-31.2,21.2-51.3,21.2
	h-17.5c-20,0-38.1-8.1-51.3-21.2s-21.2-31.2-21.2-51.3v-58c0-20,8.1-38.2,21.2-51.3s31.2-21.2,51.3-21.2h80c5.5,0,10,4.5,10,10
	V1162.6z"/>
<path class="st2" d="M1360.4,1509.5v46c0,5.5-4.5,10-10,10h-337.5c-5.5,0-10-4.5-10-10v-48c0-11.1-4.2-21.3-11.1-29
	c-8-8.9-19.5-14.5-32.4-14.5h-54v163.8c0,5.5-4.5,10-10,10h-305c-5.5,0-10-4.5-10-10V1358c0-5.5,4.5-10,10-10h305
	c5.5,0,10,4.5,10,10v91.5h395C1333.5,1449.5,1360.4,1476.3,1360.4,1509.5z"/>
<path class="st2" d="M2325.5,1653.5v18c0,5.5-4.5,10-10,10H2108c-5.5,0-10-4.5-10-10v-19c0-4-1.6-7.6-4.2-10.2
	c-2.6-2.6-6.2-4.2-10.2-4.2H2033v0h-315c-5.5,0-10-4.5-10-10v-270c0-5.5,4.5-10,10-10h305c5.5,0,10,4.5,10,10v251
	c0,4,1.6,7.6,4.2,10.2c2.6,2.6,6.2,4.2,10.2,4.2h148v0h100C2312.1,1623.5,2325.5,1636.9,2325.5,1653.5z"/>
<path class="st2" d="M3773.5,1459.5V1578c0,33.1-26.9,60-60,60h-595c-33.1,0-60-26.9-60-60v-99.5c0-8-6.5-14.5-14.5-14.5h-36
	c-8,0-14.5,6.5-14.5,14.5V1628c0,5.5-4.5,10-10,10H2646c-5.5,0-10-4.5-10-10v-270c0-5.5,4.5-10,10-10h337.5c5.5,0,10,4.5,10,10v91.5
	h315c5.5,0,10,4.5,10,10V1609c0,8,6.5,14.5,14.5,14.5h101c8,0,14.5-6.5,14.5-14.5v-149.5c0-5.5,4.5-10,10-10h305
	C3769.1,1449.5,3773.5,1454,3773.5,1459.5z"/>
<path class="st2" d="M5008.6,1391.9h-920.6c-13.8,0-24.9-11.2-24.9-24.9v-9c0-5.5-4.5-10-10-10h-240c-5.5,0-10,4.5-10,10v18.4
	c0,16.6,13.4,30,30,30h230v0h61c2.2,0,4,1.8,4,4v6.5c0,2.2-1.8,4-4,4h-163.5c-33.1,0-60,26.9-60,60v97.5c0,33.1,26.9,60,60,60h725
	c33.1,0,60-26.9,60-60v-97.5c0-18.2-8.1-34.5-20.9-45.5c-3.6-3.1-7.6-5.8-11.9-8c-8.2-4.2-17.5-6.5-27.3-6.5h-98.5c-2.2,0-4-1.8-4-4
	v-6.5c0-2.2,1.8-4,4-4h162c16,0,29,13,29,29v6.7c0,5.5,4.5,10,10,10h240.5c5.5,0,10-4.5,10-10v-20.2
	C5038.6,1405.4,5025.2,1391.9,5008.6,1391.9z M4388.1,1580.4c0,12-4.9,22.9-12.7,30.8c-7.9,7.9-18.8,12.7-30.8,12.7h-43
	c-24,0-43.5-19.5-43.5-43.5v-116c0-12,4.9-22.9,12.7-30.8c7.9-7.9,18.8-12.7,30.8-12.7h43c24,0,43.5,19.5,43.5,43.5V1580.4z"/>
<path class="st2" d="M5870.3,1430.5V1628c0,5.5-4.5,10-10,10h-305c-5.5,0-10-4.5-10-10v-52.5c0-5.5-4.5-10-10-10h-385
	c-33.1,0-60-26.9-60-60V1358c0-5.5,4.5-10,10-10h305c5.5,0,10,4.5,10,10v134.5c0,5.2,0.7,10.2,1.9,15c6.6,25,29.4,43.5,56.5,43.5
	h61.5c5.5,0,10-4.5,10-10v-110.5c0-5.5,4.5-10,10-10h305C5865.8,1420.5,5870.3,1425,5870.3,1430.5z"/>
<path class="st2" d="M1360.4,1968.2v60.5c0,5.5-4.5,10-10,10h-305c-5.3,0-9.6-4.1-10-9.2v-81.3c0-0.5,0-1,0-1.5
	c-0.8-21.4-18.4-38.5-40-38.5h-57.5v-14.5h57.5c21.6,0,39.2-17.1,40-38.4c0-0.5,0-1,0-1.6v-50.5c0-0.5,0-1,0-1.5
	c-0.8-21.4-18.4-38.5-40-38.5h-50c-22.1,0-40,17.9-40,40v37c0,5.5-4.5,10-10,10h-305c-5.5,0-10-4.5-10-10v-51.5
	c0-22.1,17.9-40,40-40h675c32.5,0,64.3,8.3,64.3,40v65c0,30.2-31.8,40-64.3,40h-32.1v14.5h32.1
	C1327.9,1908.2,1360.4,1932.5,1360.4,1968.2z"/>
<path class="st2" d="M2365.6,2005.8c28.2-7.4,79.3-26.6,79.3-68.6v-130.5c0-33.1-31.9-58-65-58h-655c-52.4,1.9-64.3,46.9-60,91.5
	c0,5.5,4.5,10,10,10h305c5.5,0,10-4.5,10-10c-0.7-32.9-4.8-74.6,40-77h50c22.1,0,40.1,18.1,40,40v90.5h0v49.1c0,3.5-4.1,5.3-6.7,3
	L2072,1909c-11-9.8-25.2-15.2-39.9-15.2h-309.1c-49.7,1.8-62.2,44.2-58,87c-0.3,37.9,34.6,62.6,70.6,58h282.6c2.8,0,5.6-0.6,8.2-1.7
	l56.4-25.2c2.9-1.3,6.2-0.8,8.6,1.3l25.8,23c1.8,1.6,4.2,2.5,6.6,2.5h317.2c2.2,0,4-1.8,4-4v-21c0-2.2-1.8-4-4-4h-74.8
	C2363.8,2009.7,2363.4,2006.4,2365.6,2005.8z M1840.1,2000.8h-107.5c-30.2,1-47.1-38.1-25.1-58.9v0c2.4-2.3,5-4.3,7.9-5.9
	c18.5-8.9,40.9-2.2,59.2,4.4c23.1,7.9,50.2,36.7,68.5,52.2C1846.5,1995.3,1844.4,2000.8,1840.1,2000.8z"/>
<path class="st2" d="M3706.5,2054.2v18c0,5.5-4.5,10-10,10H3489c-5.5,0-10-4.5-10-10v-19c0-4-1.6-7.6-4.2-10.2
	c-2.6-2.6-6.2-4.2-10.3-4.2H3414v0.2h-315c-5.5,0-10-4.5-10-10v-236.7c0-15.9-12.9-28.8-28.8-28.8h-72.5c-7.9,0-15.1,3.2-20.3,8.4
	c-5.2,5.2-8.4,12.4-8.4,20.3v120.4c0,5.5-4.5,10-10,10h-305c-5.5,0-10-4.5-10-10v-103.9c0-33.1,26.9-60,60-60h660
	c33.1,0,60,26.9,60,60v215.5h162.5v0h100C3693.1,2024.2,3706.5,2037.7,3706.5,2054.2z"/>
<path class="st2" d="M4604.3,1881.6l-196.3-54.8c-4.2-1.2-3.7-7.3,0.6-7.8l212.1-23.7c15.2-1.7,26.7-14.5,26.7-29.8v-6.7
	c0-5.5-4.5-10-10-10H4392c-2.1,0-3.9,1.7-4,3.8c-2,30-26.9,54.2-57.4,54.2l-258.7-56.1c-4.5-1-8.7,2.5-8.5,7.1l0,0
	c0.1,3.1,2.2,5.7,5.2,6.5l150.3,40.4c3.9,1,6.6,4.5,6.6,8.6l0,0c0,4.5-3.4,8.4-7.9,8.9l-297.6,35.6c-29.8,4-52,29.4-52,59.5v61.8
	c0,33.1,26.9,60,60,60h710c5.5,0,10-4.5,10-10v-89.7C4648.1,1912.4,4630.2,1888.8,4604.3,1881.6z M4354,2009.7h-118.4
	c-5.5,0-10-4.5-10-10v-123.5c0-11.2,6-21.4,16.2-28.7c10.1-7.3,24.5-11.8,41.2-11.8c5,0,10.3,0.9,15.7,2.5c8.9,2.5,17,6.4,24.4,11.3
	c25.3,16.9,40.9,46.5,40.9,78.2v72C4364,2005.3,4359.6,2009.7,4354,2009.7z"/>
<path class="st2" d="M4161.5,2021.7"/>
<path class="st2" d="M5054.9,1748.8"/>
<path class="st2" d="M5314.9,1966.4v4.1c0,0.4,0,0.8,0,1.2L5314.9,1966.4L5314.9,1966.4L5314.9,1966.4z"/>
<path class="st2" d="M5314.9,1966.4v4.1c0,0.4,0,0.8,0,1.2L5314.9,1966.4L5314.9,1966.4L5314.9,1966.4z"/>
<path class="st2" d="M5314.9,1966.4v4.1c0,0.4,0,0.8,0,1.2L5314.9,1966.4L5314.9,1966.4L5314.9,1966.4z"/>
<path class="st2" d="M6168.5,1778.8v32.5c0,5.5-4.5,10-10,10h-240c-5.5,0-10-4.5-10-10v-12.9c0-29.9-28.4-32.4-36.3-32.5
	c-1.1,0-2,0.9-2,2v211c0,33.2-26.9,60-60,60h-660c-33.1,0-60-26.9-60-60v-220.2c0-5.5,4.5-10,10-10h306c5,0,9,4,9,9v212.7
	c0,24.9,20.2,45,45,45h40c24.5,0,44.4-19.5,45-43.9c0-0.4,0-0.8,0-1.2v-4.1h0v-207.6c0-5.5,4.5-10,10-10h315v0h268.3
	C6155.1,1748.7,6168.5,1762.2,6168.5,1778.8z"/>
<path class="st2" d="M1263.1,2280.4v14.5c40.7-1.1,92.1-5.3,94.9,50c1.2,40.7,5,92.4-50,95H640.6c-52.4-1.9-64.3-46.9-60-91.5
	c0-5.5,4.5-10,10-10h305c27.9,1.7-17.2,78.2,47.9,86.5c1.1,0.1,53,0.1,54.2,0c47.9-3.6,37-57,37.9-90c0-6.8-1.7-13.5-5-19.4
	c-13.6-26.6-46.6-19.9-70.9-20.6v0h-54.2l0-14.5h110c11,0,20-8.9,20-20c-1.3-33.9,11.5-94.9-40-96c-33.3,0.8-87.2-9.8-90,38.7
	c-0.5,2.5,0.3,36.8,0,38.9c-0.3,5.2-4.7,9.4-10,9.4h-305c-5.5,0-10-4.5-10-10c1-33.9-10.4-89.8,40-91.5h690c27.6,0,50,22.4,50,50
	C1365.6,2280.9,1332.4,2282.5,1263.1,2280.4z"/>
<path class="st2" d="M2555.9,2294.9v85c0,33.1-26.9,60-60,60h-660c-33.1,0-60-26.9-60-60v-157.5h-268.3c-16.6,0-30-13.4-30-30v-32.5
	c0-5.5,4.5-10,10-10h240c5.5,0,10,4.5,10,10v12.9c0,17.9,14.6,32.5,32.5,32.5h320.8c5.5,0,10,4.5,10,10v156.2c0,24.9,20.1,45,45,45
	h40c24.9,0,45-20.1,45-45v-66.6c0-5.5,4.5-10,10-10H2555.9z"/>
<path class="st2" d="M3123.5,2276.4v-5c0-11.1-8.9-20-20-20H3001c-21.8,0-39.4,17.3-40,39c0,0.3,0,0.7,0,1v79.5c0,0.4,0,0.7,0,1
	c0.6,21.6,18.2,39,40,39h102.5c16.6,0,30-13.4,30-30v-38.5c0-2.2,1.8-4,4-4h267.8c5.5,0,10,4.5,10,10v31.5c0,33.1-26.9,60-60,60
	H2696c-33.1,0-60-26.9-60-60v-97.5c0-33.1,26.9-60,60-60h265v0h122.8c4,0,7.2-3.2,7.2-7.2l0,0c0-4-3.2-7.2-7.2-7.2H2666
	c-16.6,0-30-13.4-30-30v-18c0-5.5,4.5-10,10-10h311c2.2,0,4,1.8,4,4v21c0,2.2,1.8,4,4,4h421c16.6,0,30,13.4,30,30v61.5
	c0,5.5-4.5,10-10,10h-278.5C3125.3,2280.4,3123.5,2278.6,3123.5,2276.4z"/>
<path class="st2" d="M4640.7,2209.9v220c0,5.5-4.5,10-10,10h-306c-5,0-9-4-9-9v-212.6c0-24.9-20.1-45-45-45h-40
	c-24.5,0-44.4,19.5-45,43.8c0,0.4,0,0.8,0,1.2v4.1h0v207.5c0,5.5-4.5,10-10,10h-305c-5.5,0-10-4.5-10-10v-220c0-33.1,26.9-60,60-60
	h660C4613.9,2149.9,4640.7,2176.7,4640.7,2209.9z"/>
<path class="st2" d="M5870.3,2189.9v89.1c0,17.9-12,33.7-29.3,38.5l-230.7,64.3h-41.8l41.8,11.9l148.7,42.2c2.2,0.6,1.8,3.9-0.5,3.9
	h-309.2c-0.9,0-1.8-0.1-2.7-0.4l-342.3-97.2c-2.2-0.6-1.8-3.9,0.5-3.9h309.2c0.9,0,1.8,0.1,2.7,0.4l63.7,18.1l26,7.4h0
	c8.4-2.9,15.9-7.7,22-13.8c10.5-10.5,17-25,17-41v-101.5c0-24-19.5-43.5-43.5-43.5h-43c-12,0-22.9,4.9-30.8,12.7
	c-7.9,7.9-12.7,18.8-12.7,30.8v62.5c0,5.5-4.5,10-10,10h-305c-5.5,0-10-4.5-10-10v-80.5c0-22.1,17.9-40,40-40h700
	C5852.4,2149.9,5870.3,2167.8,5870.3,2189.9z"/>
<path class="st2" d="M1360.4,2640.4v222.5c0,5.5-4.5,10-10,10h-272.5c-5.5,0-10-4.5-10-10v-224.5c0-16-13-29-29-29h-7
	c-8,0-15.3,3.2-20.5,8.5c-5.2,5.2-8.4,12.3-8.5,20.1c0,0.1,0,0.2,0,0.4h0v135c0,5.5-4.5,10-10,10h-110c-5.5,0-10-4.5-10-10v-135
	c0-16-13-29-29-29h-7c-8,0-15.3,3.2-20.5,8.5c-5.2,5.2-8.5,12.5-8.5,20.5v33.5c0,5.5-4.5,10-10,10H590.4c-5.5,0-10-4.5-10-10v-31.5
	c0-33.1,26.9-60,60-60h660C1333.5,2580.4,1360.4,2607.3,1360.4,2640.4z"/>
<path class="st2" d="M2202.9,2800.6c54.1-1.5,97.2-45.8,97.2-100v-80c0-22.1-17.9-40-40-40h-285v-0.2h-415c-22.1,0-40,17.9-40,40v65
	c0,22.1,17.9,40,40,40h246.3c14.3,0,27.2,0.8,38.7,2.3c3.5,0.4,6.8,0.9,10,1.5c91.8,15.6,90.3,66.4,88.2,79.9
	c-0.3,1.9-2,3.4-3.9,3.4h-90.2c-2.2,0-4-1.8-4-4v-19.8c0-2.8-2.2-5-5-5h-315c-2.8,0-5,2.2-5,5v62.3c0,2.8,2.2,5,5,5h315
	c2.8,0,5-2.2,5-5v-20c0-2.2,1.8-4,4-4h122c2.2,0,4,1.8,4,4v34.3c0,2.8,2.2,5,5,5h315c2.8,0,5-2.2,5-5v-12.8c0-22.1-17.9-40-40-40
	h-220v-7.2L2202.9,2800.6z M1975.2,2808.4c0,2.2-1.8,4-4,4h-7.7c-2.3,0-4.2-2-4-4.3c5.5-63.6-57.3-87.5-65.3-89.2
	c-51.7-11.4-48.9-51.8-48.9-65.9v-6.6c0-28.3,22.9-51.3,51.3-51.3h41c20.8,0,37.7,16.9,37.7,37.7L1975.2,2808.4L1975.2,2808.4z"/>
<path class="st2" d="M3706.5,2755.4v32.5c0,5.5-4.5,10-10,10h-240c-5.5,0-10-4.5-10-10v-12.9c0-17.9-14.6-32.5-32.5-32.5h-5.8v117.9
	c0,5.5-4.5,10-10,10h-306c-5,0-9-4-9-9v-212.6c0-24.9-20.1-45-45-45h-40c-24.9,0-45,20.1-45,45v211.6c0,5.5-4.5,10-10,10h-315v-230
	c0-33.1,26.9-60,60-60h660c33.1,0,60,26.9,60,60v85h268.3C3693.1,2725.4,3706.5,2738.9,3706.5,2755.4z"/>
<path class="st2" d="M4640.7,2580.4v230c0,33.1-26.9,60-60,60h-660c-33.1,0-60-26.9-60-60v-220c0-5.5,4.5-10,10-10h306c5,0,9,4,9,9
	V2802c0,24.9,20.1,45,45,45h40c24.5,0,44.4-19.5,45-43.8c0-0.4,0-0.8,0-1.2v-4.1h0v-207.5c0-5.5,4.5-10,10-10H4640.7z"/>
<path class="st2" d="M6000.1,2865.9c-1.3,8.9,5.2,33.6-10,33.5h-207.5c-5.5,0-10-4.5-10-10c1.3-9.2-4.1-18.9-14.1-19h-148.4v0h-185
	c-5.5,0-10-4.5-10-10v-62.5h-395c-33.1,0-60-26.9-60-60v-80c0-2.8,2.2-5,5-5h315c2.8,0,5,2.2,5,5c4,38.7-18.9,124.3,43.5,125.5h66.5
	c11,0,20-8.9,20-20v-173c0-5.5,4.5-10,10-10h305c5.5,0,10,4.5,10,10v265.5h250C5995.6,2855.9,6000.1,2860.4,6000.1,2865.9z"/>
<path class="st2" d="M1360.4,3197.4c5,37.8-19.6,75.5-60,75.1h-680c-22.1,0-40-17.9-40-40V3147c0-2.8,2.2-5,5-5h315c2.8,0,5,2.2,5,5
	v56.5c0,22.1,17.9,40,40,40c33.8-0.7,88.3,9.8,90-40c0.3-20.9,3.1-48.9-18.4-60.9c-28.1-29.4-360.3-57.9-402-68.3
	c-25.6-3.3-37.6-27.9-34.6-51.8c0-22.1,17.9-40,40-40h679.3c45.5,0.7,65,40.9,60,82c0,2.8-2.2,5-5,5h-314.3c-2.8,0-5-2.2-5-5
	c4.3-63-46.2-52.6-90-53c-22.1,0-40,17.9-40,40c0,18.6,13.8,34.3,32.2,36.8l370.8,49.6C1338.2,3141.9,1360.4,3167.3,1360.4,3197.4z"
	/>
<path class="st2" d="M2270.4,3042.5v133c0,5.5-4.5,10-10,10h-304.3c-5.5,0-10-4.5-10-10v-164c0-8-6.5-14.5-14.5-14.5h-101
	c-4,0-7.6,1.6-10.2,4.2c-2.6,2.6-4.2,6.2-4.2,10.2v261h-325v-240c0-27.6,22.4-50,50-50h669.3
	C2243.5,2982.5,2270.4,3009.3,2270.4,3042.5z"/>
<path class="st2" d="M3357.5,3087.6c28,0,50.8-22.7,50.8-50.8v-3.6c0-28-22.7-50.8-50.8-50.8h-678.6c-28,0-50.8,22.7-50.8,50.8v3.6
	c0,28,22.7,50.8,50.8,50.8h44.8c1.1,0,2,0.9,2,2v3.2c0,1.1-0.9,2-2,2h-44.8c-25.2,0-46.2,18.4-50.1,42.6c-0.4,2.4,1.5,4.6,4,4.6h320
	c1.3,0,2.4-0.8,2.8-2c5.4-15.7,20.3-27.1,37.9-27.1h49.6c22.1,0,40,17.9,40,40v49.6c0,22.1-17.9,40-40,40h-49.6
	c-22.1,0-40-17.9-40-40V3174c0-1.7-1.3-3-3-3h-318.3c-2.2,0-4,1.8-4,4v46.8c0,28,22.7,50.8,50.8,50.8h678.5
	c28,0,50.8-22.7,50.8-50.8v-76.1c0-28-22.7-50.8-50.8-50.8h-44.8c-1.1,0-2-0.9-2-2v-3.2c0-1.1,0.9-2,2-2L3357.5,3087.6
	L3357.5,3087.6z M2964.1,3022.1c6.6-6.6,15.6-10.6,25.6-10.6h57.1c20,0,36.2,16.2,36.2,36.2c0,10-4.1,19.1-10.6,25.6
	c-0.4,0.4-0.9,0.9-1.4,1.3c-6.4,5.8-14.9,9.3-24.3,9.3h-57.1c-9.4,0-17.9-3.5-24.3-9.3c-7.4-6.6-12-16.2-12-26.9
	C2953.5,3037.7,2957.5,3028.7,2964.1,3022.1z"/>
<path class="st2" d="M4705.4,3113v14.5h-369.7c-10.2,0-18.9-7.7-19.9-17.9c-0.9-8.5-3.3-18.4-9.2-25.6c-7.3-8.9-18.4-14.5-30.8-14.5
	h-75.5c-4,0-7.6,1.6-10.2,4.2c-2.6,2.6-4.2,6.2-4.2,10.2v178.5c0,5.5-4.5,10-10,10h-305c-5.5,0-10-4.5-10-10v-270
	c0-5.5,4.5-10,10-10h305c5.5,0,10,4.5,10,10v58.5c0,2.2,1.8,4,4,4h411c22.1,0,40,17.9,40,40v3.5c0,4,1.6,7.6,4.2,10.2
	c2.6,2.6,6.2,4.2,10.2,4.2H4705.4z"/>
<path class="st2" d="M1864.9,3431.8h-382.5v-33.5c0-5.5-4.5-10-10-10h-305c-5.5,0-10,4.5-10,10v33.5H774.9c-22.1,0-40,17.9-40,40
	v123c0,22.1,17.9,40,40,40h382.5v33.5c0,5.5,4.5,10,10,10h305c5.5,0,10-4.5,10-10v-33.5h382.5c22.1,0,40-17.9,40-40v-123
	C1904.9,3449.8,1887,3431.8,1864.9,3431.8z M1157.4,3595.8c0,5.5-4.5,10-10,10h-47.5c-22.1,0-40-17.9-40-40v-65
	c0-22.1,17.9-40,40-40h47.5c5.5,0,10,4.5,10,10V3595.8z M1579.9,3565.8c0,22.1-17.9,40-40,40h-47.5c-5.5,0-10-4.5-10-10v-125
	c0-5.5,4.5-10,10-10h47.5c22.1,0,40,17.9,40,40V3565.8z"/>
<path class="st2" d="M3022.6,3562.3h-506c-2.2,0-4-1.8-4-4v-21c0-2.2,1.8-4,4-4h401.8c27,0,48.9-21.9,48.9-48.9v-47.2
	c0-27-21.9-48.9-48.9-48.9h-680.5c-27.6,0-49.9,22.4-49.9,50v120c0,2.2-1.8,4-4,4h-188c-1.7,0-3,1.3-3,3v8.5c0,1.7,1.3,3,3,3h188
	c2.2,0,4,1.8,4,4v87.5c0,5.5,4.5,10,10,10h304.6c5.5,0,10-4.5,10-10v-87.5c0-2.2,1.8-4,4-4h274c4,0,7.6,1.6,10.3,4.2
	c2.6,2.6,4.2,6.3,4.2,10.3v4.5c0,5.5,4.5,10,10,10h207.5c5.5,0,10-4.5,10-10v-23.5C3032.6,3566.8,3028.1,3562.3,3022.6,3562.3z
	 M2512.6,3431.8c0-8,3.2-15.3,8.5-20.5c5.2-5.2,12.5-8.5,20.5-8.5h72c16,0,29,13,29,29v58c0,8-3.2,15.3-8.5,20.5
	c-5.2,5.2-12.5,8.5-20.5,8.5h-91c-5.5,0-10-4.5-10-10V3431.8z"/>
<path class="st2" d="M3887.3,3388.3h-265v0.4h-130v-0.4h-265c-33.1,0-60,26.9-60,60v170c0,33.1,26.9,60,60,60h660
	c33.1,0,60-26.9,60-60v-170C3947.3,3415.2,3920.5,3388.3,3887.3,3388.3z M3622.3,3461.3L3622.3,3461.3l0,144.5h0v4.1
	c0,0.4,0,0.8,0,1.2c-0.6,24.3-20.5,43.8-45,43.8h-40c-24.9,0-45-20.1-45-45v-152.6c0-24.9,20.1-45,45-45h40
	c24.5,0,44.4,19.5,45,43.8c0,0.4,0,0.8,0,1.2V3461.3z"/>
<path class="st2" d="M5175.2,3489.9h-337.5c-2.8,0-5-2.2-5-5v-86.5c0-5.5-4.5-10-10-10h-632.5c-22.1,0-40,17.9-40,40v36
	c0,22.1,17.9,40,40,40h312.5c2.8,0,5,2.2,5,5v120.7c0,10.6-8.6,19.3-19.3,19.3H4444c-18.6,0-33.8-15.1-33.8-33.8v-72.2
	c0-5.5-4.5-10-10-10h-305c-5.5,0-10,4.5-10,10v85c0,27.6,22.4,50,50,50h1040c44.2,0,80-35.8,80-80v-28.5
	C5255.2,3525.7,5219.4,3489.9,5175.2,3489.9z M4507.7,3469.9c0,11-9,20-20,20h-34c-24,0-43.5-19.5-43.5-43.5
	c0-12,4.9-22.9,12.7-30.8c7.9-7.9,18.8-12.7,30.8-12.7h34c11,0,20,8.9,20,20V3469.9z M4930.2,3620.4c0,24-19.5,43.5-43.5,43.5h-34
	c-11,0-20-9-20-20v-119c0-11.1,9-20,20-20h34c24,0,43.5,19.5,43.5,43.5V3620.4z"/>
<rect x="317.9" y="558.8" class="st2" width="118" height="290"/>
<rect x="1002.3" y="-460.7" class="st2" width="325" height="290"/>
<rect x="317.9" y="959.5" class="st2" width="118" height="290"/>
<text transform="matrix(1 0 0 1 1728.8713 -1338.825)" style="fill:#ED184A; font-family:'HMTarerWide-Regular'; font-size:72px;">Դ</text>
<text transform="matrix(1 0 0 1 1808.8613 -1338.825)" style="fill:#ED184A; font-family:'HMTarerWide-Regular'; font-size:72px; letter-spacing:-13;">ա</text>
<text transform="matrix(1 0 0 1 1874.5314 -1338.825)" style="fill:#ED184A; font-family:'HMTarerWide-Regular'; font-size:72px;">նյա </text>
<text transform="matrix(1 0 0 1 1823.1913 -1288.825)" style="fill:#ED184A; font-family:'HMTarerWide-Regular'; font-size:72px;">Լոխ</text>
<path d="M22.4-170.5h-262.2c-31.3,0-56.7-25.4-56.7-56.7v-177.2c0-31.3,25.4-56.7,56.7-56.7H22.4c31.3,0,56.7,25.4,56.7,56.7v177.2
	C79.1-195.8,53.7-170.5,22.4-170.5z"/>
<path class="st4" d="M5735.7-464.3h-327.4c-31.3,0-56.7,25.4-56.7,56.7v177.2c0,31.3,25.4,56.7,56.7,56.7h327.4
	c31.3,0,56.7-25.4,56.7-56.7v-177.2C5792.4-439,5767-464.3,5735.7-464.3z M5664.3-269c0,31.3-25.4,56.7-56.7,56.7h-71.2
	c-31.3,0-56.7-25.4-56.7-56.7v-100.2c0-31.3,25.4-56.7,56.7-56.7h71.2c31.3,0,56.7,25.4,56.7,56.7V-269z"/>
<path class="st5" d="M-65.5-207.5h-86.4c-37.6,0-68-30.5-68-68v-80.3c0-37.6,30.5-68,68-68h86.4c37.6,0,68,30.5,68,68v80.3
	C2.5-238-27.9-207.5-65.5-207.5z"/>
<polygon class="st4" points="948.8,-528 318,-528 318,-701.4 178.8,-701.4 178.8,-735 744.5,-818.3 948.8,-818.3 "/>
<path d="M2333.5-285v0.6H2463v-0.6H2333.5z"/>
<path class="st4" d="M2616.8-288.4v-175.7h-53.9l-307.1,175.7v52.6h253l0.2,62h107.7v-62h66.4v-52.6H2616.8z M2502.6-287.8H2343
	l159.5-91.3V-287.8z"/>
<rect x="121.9" y="-436.8" width="17.5" height="12.9"/>
<rect x="191.8" y="-460.7" width="17.5" height="12.9"/>
<rect x="191.8" y="-460.7" width="17.5" height="12.9"/>
<g id="eblBX8_00000034052232335612695980000015077455834808549011_">
	
		<image style="overflow:visible;" width="1706" height="132" xlink:href="C3F3D466297282AC.jpg"  transform="matrix(1.7797 0 0 1.7797 -1200.1624 -1715.1741)">
	</image>
</g>
<path class="st4" d="M1306.5-330.9l-144.2,75.5h164.9v86.8h-315.4v-64.6l45.1-22.2l158-77.8c10.5-5.2,17.4-18,17.4-32.2v0
	c0-31.3-20.1-56.7-44.9-56.7h-45.4c-24.8,0-44.9,25.4-44.9,56.7v23.6h-94.9v-60.4c0-31.3,20.1-56.7,44.9-56.7h235.2
	c24.8,0,44.9,25.4,44.9,56.7v32C1327.3-352.9,1319.1-337.4,1306.5-330.9z"/>
<path class="st4" d="M2243.9-265.6v35.1c0,31.3-25.4,56.7-56.7,56.7h-312.3c-31.3,0-56.7-25.4-56.7-56.7v-30.4h131.5
	c-0.2,1.8-2.6,20.9,12.7,36.1c8,8,19.1,13,31.3,13h86.7c24.4,0,44.2-19.8,44.2-44.2c0-12.2-4.9-23.3-13-31.3c-8-8-19.1-13-31.3-13
	h-67.2v-47h65.1c22.3,0,40.4-18.1,40.4-40.4c0-11.2-4.5-21.3-11.8-28.6c-7.3-7.3-17.4-11.8-28.6-11.8h-94.3
	c-22.3,0-40.4,18.1-40.4,40.4c0,1.3,0.1,2.6,0.2,3.8h-111.9v-23.9c0-31.3,25.4-56.7,56.7-56.7h285.2c31.3,0,56.7,25.4,56.7,56.7
	v28.7c0,31.3-25.4,56.7-56.7,56.7h13.6C2218.6-322.3,2243.9-296.9,2243.9-265.6z"/>
<rect x="2333.5" y="-285" width="129.5" height="0.6"/>
<rect x="2333.5" y="-285" width="129.5" height="0.6"/>
<path class="st4" d="M3135.1-301.2v70.9c0,31.3-25.4,56.7-56.7,56.7h-269.6c-43.4,0-78.5-35.1-78.5-78.5h134.3v20.6
	c0,5.8,4.7,10.4,10.4,10.4h118.1c15.7,0,28.3-12.7,28.3-28.3v-44.5c0-15.7-12.7-28.3-28.3-28.3h-128.5c-50.1,0-73.6,29.4-73.6,29.4
	h-49.8l28.1-171.4h343.6v70.7h-310.2l-5.6,47.9c9.6-7.6,21.8-12.1,35-12.1h246.3C3109.7-357.9,3135.1-332.5,3135.1-301.2z"/>
<path class="st6" d="M2838-393.7"/>
<path class="st0" d="M3570.6-348h-254.7v0.6h262.6C3575.9-347.8,3573.2-348,3570.6-348z"/>
<path class="st4" d="M3621.3-383.8v-23.9c0-31.3-25.4-56.7-56.7-56.7h-300.9c-31.3,0-56.7,25.4-56.7,56.7v177.2
	c0,31.3,25.4,56.7,56.7,56.7h306.9c31.3,0,56.7-25.4,56.7-56.7v-60.8c0-28.6-21.2-52.3-48.8-56.1h-262.6v-51.5
	c0-15.7,12.7-28.3,28.3-28.3h119.1c15.6,0,28.3,12.7,28.3,28.3v15.2H3621.3z M3344.2-308.5h119.1c15.6,0,28.3,12.7,28.3,28.4v27.5
	c0,15.6-12.7,28.3-28.3,28.3h-119.1c-15.7,0-28.3-12.7-28.3-28.3v-27.5C3315.9-295.8,3328.6-308.5,3344.2-308.5z"/>
<rect x="3315.9" y="-348" class="st4" width="175.7" height="0.6"/>
<path class="st4" d="M3578.5-347.5H3456v-0.6h114.6C3573.2-348,3575.9-347.8,3578.5-347.5z"/>
<path class="st4" d="M4144.5-464.1v58c0,0-15.6,13.9-37.5,35.5c-52.1,51.2-140.2,145.4-140.2,196.8h-139.6
	c0,0,77.7-127.2,208.7-196.8c0,0-168.3,0-190.7,0c-50,0-67.6,4.2-67.6,22.5c-12.5,0-52.6,0-52.6,0v-116.1H4144.5z"/>
<path class="st0" d="M4402.4-347.6c1.6,0.2,3.3,0.4,5.1,0.4H4515c1.7,0,3.4-0.1,5.1-0.4H4402.4z"/>
<path class="st4" d="M4630.5-337.2h-24.6v-8.5c28.6-2.9,50.9-27,50.9-56.4v-5.3c0-31.3-25.4-56.7-56.7-56.7h-277.7
	c-31.3,0-56.7,25.4-56.7,56.7v5.3c0,29.4,22.3,53.5,50.9,56.4v8.5H4292c-31.3,0-56.7,25.4-56.7,56.7v48.5
	c0,31.3,25.4,56.7,56.7,56.7h338.5c31.3,0,56.7-25.4,56.7-56.7v-48.5C4687.2-311.9,4661.8-337.2,4630.5-337.2z M4381.6-409.5
	c6.6-6.6,15.7-10.7,25.8-10.7H4515c20.1,0,36.5,16.3,36.5,36.5c0,10.1-4.1,19.2-10.7,25.8c-5.5,5.5-12.7,9.2-20.7,10.3
	c-1.6,0.2-3.3,0.4-5.1,0.4h-107.5c-1.7,0-3.4-0.1-5.1-0.4c-17.8-2.5-31.4-17.7-31.4-36.1C4371-393.8,4375-402.9,4381.6-409.5z
	 M4557.1-249c0,20.1-16.3,36.5-36.5,36.5h-118.8c-20.1,0-36.5-16.3-36.5-36.5v-21.8c0-20.1,16.3-36.5,36.5-36.5h118.8
	c20.1,0,36.5,16.3,36.5,36.5V-249z"/>
<path class="st0" d="M4520-347.6c-1.6,0.2-3.3,0.4-5.1,0.4h-107.5c-1.7,0-3.4-0.1-5.1-0.4H4520z"/>
<path class="st0" d="M4520-347.6c-1.6,0.2-3.3,0.4-5.1,0.4h-107.5c-1.7,0-3.4-0.1-5.1-0.4H4520z"/>
<path class="st4" d="M5160.8-464.2h-317.7c-31.3,0-56.7,25.4-56.7,56.7v76.7c0,31.3,25.4,56.7,56.7,56.7h246.1v31
	c0,15.7-12.7,28.3-28.3,28.3H4943c-13.1,0-24.1-8.9-27.4-21l-129.2,0v5.4c0,31.3,25.4,56.7,56.7,56.7h317.7
	c31.3,0,56.7-25.4,56.7-56.7v-177.2C5217.5-438.8,5192.1-464.2,5160.8-464.2z M5089.3-350.7c0,15.7-12.7,28.4-28.3,28.4H4943
	c-15.7,0-28.4-12.7-28.4-28.4v-46.9c0-15.7,12.7-28.4,28.4-28.4H5061c15.6,0,28.3,12.7,28.3,28.4V-350.7z"/>
<line class="st4" x1="4786.5" y1="-330.9" x2="4786.5" y2="-357.5"/>
</svg>
